<svg xmlns="http://www.w3.org/2000/svg" xmlns:xlink="http://www.w3.org/1999/xlink" width="500" zoomAndPan="magnify" viewBox="0 0 375 374.999991" height="500" preserveAspectRatio="xMidYMid meet" version="1.0"><defs><clipPath id="69e0f38334"><path d="M 209 97 L 239 97 L 239 157 L 209 157 Z M 209 97 " clip-rule="nonzero"/></clipPath><clipPath id="d5322b840c"><path d="M 180.996094 125.96875 L 219.144531 89.902344 L 255.214844 128.050781 L 217.0625 164.117188 Z M 180.996094 125.96875 " clip-rule="nonzero"/></clipPath><clipPath id="d5d49c8751"><path d="M 219.078125 89.964844 L 180.929688 126.035156 L 216.996094 164.183594 L 255.144531 128.117188 Z M 219.078125 89.964844 " clip-rule="nonzero"/></clipPath><clipPath id="eae56b036c"><path d="M 138.691406 89.878906 L 236.191406 89.878906 L 236.191406 187.378906 L 138.691406 187.378906 Z M 138.691406 89.878906 " clip-rule="nonzero"/></clipPath></defs><path fill="#ffffff" d="M 128.050781 76.730469 L 250.328125 76.730469 L 250.78125 79.679688 C 250.839844 80.050781 271.617188 209.679688 196.320312 211.875 C 162.195312 212.871094 143.808594 202.617188 134.003906 182.875 C 124.527344 163.777344 123.597656 136 124.164062 100.9375 C 124.269531 94.363281 124.425781 87.59375 124.589844 80.578125 L 124.601562 80.125 L 124.679688 76.730469 Z M 226.914062 105 C 225.628906 103.589844 223.441406 103.488281 222.03125 104.773438 C 220.617188 106.054688 220.515625 108.242188 221.800781 109.652344 C 221.835938 109.691406 233.660156 122.292969 222.214844 143.550781 C 221.3125 145.230469 221.941406 147.328125 223.621094 148.230469 C 225.300781 149.132812 227.394531 148.503906 228.300781 146.824219 C 242.09375 121.207031 226.953125 105.046875 226.914062 105 " fill-opacity="1" fill-rule="nonzero"/><path fill="#ffffff" d="M 103.585938 106.179688 L 103.585938 150.851562 C 106.59375 153.851562 109.703125 156.769531 112.867188 159.601562 C 116.984375 163.289062 121.242188 166.878906 125.652344 170.242188 C 126.976562 175.15625 128.683594 179.9375 130.90625 184.414062 C 131.421875 185.457031 131.96875 186.484375 132.542969 187.492188 C 129.625 185.75 126.785156 183.863281 124.03125 181.902344 C 116.839844 176.789062 109.984375 171.042969 103.488281 165.078125 C 100.496094 162.332031 97.507812 159.5 94.679688 156.589844 L 94.445312 156.347656 L 93.203125 153.316406 L 93.203125 95.792969 L 120.792969 95.792969 C 120.761719 97.488281 120.730469 99.1875 120.703125 100.878906 C 120.675781 102.640625 120.648438 104.40625 120.625 106.179688 L 103.585938 106.179688 " fill-opacity="1" fill-rule="evenodd"/><path fill="#ffffff" d="M 271.410156 150.851562 L 271.410156 106.179688 L 256.667969 106.179688 C 256.613281 104.90625 256.550781 103.636719 256.480469 102.371094 C 256.363281 100.199219 256.222656 98 256.054688 95.792969 L 281.796875 95.792969 L 281.796875 153.316406 L 280.554688 156.347656 L 280.320312 156.585938 C 277.488281 159.511719 274.476562 162.359375 271.476562 165.113281 C 264.988281 171.0625 258.144531 176.796875 250.96875 181.902344 C 248.21875 183.855469 245.390625 185.742188 242.480469 187.480469 C 245.621094 182.007812 248.136719 175.984375 250.125 169.640625 C 254.257812 166.453125 258.257812 163.074219 262.132812 159.601562 C 265.292969 156.769531 268.40625 153.851562 271.410156 150.851562 " fill-opacity="1" fill-rule="evenodd"/><path fill="#ffffff" d="M 176.230469 207.21875 C 176.230469 205.304688 174.683594 203.757812 172.769531 203.757812 C 170.859375 203.757812 169.308594 205.304688 169.308594 207.21875 L 169.308594 256.539062 L 136.808594 292.496094 L 136.796875 292.484375 C 135.515625 293.90625 135.625 296.09375 137.042969 297.375 C 137.707031 297.972656 138.535156 298.269531 139.363281 298.269531 L 235.636719 298.269531 C 237.546875 298.269531 239.097656 296.71875 239.097656 294.808594 C 239.097656 293.800781 238.664062 292.890625 237.976562 292.257812 L 205.691406 256.539062 L 205.691406 207.988281 C 205.691406 206.074219 204.140625 204.523438 202.230469 204.523438 L 198.769531 207.988281 L 176.230469 207.21875 " fill-opacity="1" fill-rule="nonzero"/><path fill="#ffffff" d="M 172.769531 254.390625 L 202.230469 254.390625 L 202.230469 261.308594 L 172.769531 261.308594 L 172.769531 254.390625 " fill-opacity="1" fill-rule="nonzero"/><path fill="#ffffff" d="M 187.5 0 C 290.625 0 375 84.375 375 187.5 C 375 290.625 290.625 375 187.5 375 C 84.375 375 0 290.625 0 187.5 C 0 84.375 84.375 0 187.5 0 Z M 187.5 20.769531 C 95.796875 20.769531 20.769531 95.796875 20.769531 187.5 C 20.769531 279.203125 95.796875 354.230469 187.5 354.230469 C 279.199219 354.230469 354.230469 279.203125 354.230469 187.5 C 354.230469 95.796875 279.199219 20.769531 187.5 20.769531 " fill-opacity="1" fill-rule="evenodd"/><g clip-path="url(#69e0f38334)"><g clip-path="url(#d5322b840c)"><g clip-path="url(#d5d49c8751)"><path fill="#ffffff" d="M 211.847656 98.511719 C 211.234375 98 211.640625 96.996094 212.4375 97.09375 C 227.566406 98.933594 239.097656 112.050781 238.660156 127.585938 C 238.226562 143.125 225.976562 155.570312 210.769531 156.5625 C 209.96875 156.617188 209.617188 155.589844 210.261719 155.117188 C 217.589844 149.710938 223.390625 139.15625 223.726562 127.167969 C 224.0625 115.179688 218.863281 104.316406 211.847656 98.511719 Z M 211.847656 98.511719 " fill-opacity="1" fill-rule="evenodd"/></g></g></g><g clip-path="url(#eae56b036c)"><path fill="#6a1b9a" d="M 187.507812 89.878906 C 160.609375 89.878906 138.6875 111.796875 138.6875 138.699219 C 138.6875 165.601562 160.609375 187.523438 187.507812 187.523438 C 214.410156 187.523438 236.332031 165.601562 236.332031 138.699219 C 236.332031 111.796875 214.410156 89.878906 187.507812 89.878906 Z M 187.507812 100.355469 C 208.75 100.355469 225.859375 117.460938 225.859375 138.699219 C 225.859375 159.9375 208.75 177.046875 187.507812 177.046875 C 166.269531 177.046875 149.164062 159.9375 149.164062 138.699219 C 149.164062 117.460938 166.269531 100.355469 187.507812 100.355469 Z M 187.507812 100.355469 " fill-opacity="1" fill-rule="nonzero"/></g><path fill="#6a1b9a" d="M 163.773438 135.867188 C 161.835938 137.804688 161.835938 140.925781 163.773438 142.867188 L 176.824219 155.914062 C 177.066406 156.15625 177.324219 156.371094 177.601562 156.550781 C 177.738281 156.640625 177.878906 156.726562 178.023438 156.800781 C 179.890625 157.785156 182.246094 157.488281 183.820312 155.914062 L 211.25 128.488281 C 213.1875 126.546875 213.1875 123.425781 211.25 121.488281 C 209.308594 119.550781 206.1875 119.550781 204.25 121.488281 L 180.320312 145.417969 L 170.769531 135.867188 C 168.832031 133.929688 165.710938 133.929688 163.773438 135.867188 Z M 163.773438 135.867188 " fill-opacity="1" fill-rule="nonzero"/></svg>